<?xml version="1.0" standalone="no"?>
<!DOCTYPE svg PUBLIC "-//W3C//DTD SVG 20010904//EN"
 "http://www.w3.org/TR/2001/REC-SVG-20010904/DTD/svg10.dtd">
<svg version="1.0" xmlns="http://www.w3.org/2000/svg"
 width="139.000000pt" height="115.000000pt" viewBox="0 0 139.000000 115.000000"
 preserveAspectRatio="xMidYMid meet">

<g transform="translate(0.000000,115.000000) scale(0.100000,-0.100000)"
fill="#000000" stroke="none">
<path d="M666 1105 c-120 -33 -164 -66 -393 -296 -120 -120 -219 -222 -220
-226 -6 -16 441 -450 487 -473 227 -114 470 -80 640 90 171 171 209 414 99
632 -62 123 -206 237 -344 273 -71 18 -202 18 -269 0z m258 -20 c144 -38 278
-141 335 -257 81 -167 82 -315 1 -483 -47 -97 -82 -140 -153 -189 -117 -81
-275 -112 -414 -83 -140 30 -167 49 -408 289 l-220 218 215 214 c184 182 225
218 283 246 121 59 246 75 361 45z"/>
</g>
</svg>
