<?xml version="1.0" standalone="no"?>
<!DOCTYPE svg PUBLIC "-//W3C//DTD SVG 20010904//EN"
 "http://www.w3.org/TR/2001/REC-SVG-20010904/DTD/svg10.dtd">
<svg version="1.0" xmlns="http://www.w3.org/2000/svg"
 width="139.000000pt" height="115.000000pt" viewBox="0 0 139.000000 115.000000"
 preserveAspectRatio="xMidYMid meet">

<g transform="translate(0.000000,115.000000) scale(0.100000,-0.100000)"
fill="#000000" stroke="none">
<path d="M483 1095 c-148 -33 -292 -141 -360 -271 -113 -212 -74 -466 96 -634
173 -171 412 -209 628 -99 50 25 104 74 280 250 120 120 219 222 220 226 6 16
-441 450 -487 473 -123 62 -260 82 -377 55z m288 -35 c35 -12 84 -34 109 -50
25 -16 137 -122 250 -235 l204 -205 -203 -204 c-112 -112 -226 -217 -255 -234
-113 -69 -260 -97 -379 -72 -146 30 -297 141 -356 262 -94 193 -77 390 49 573
57 83 181 159 305 185 64 14 204 4 276 -20z"/>
</g>
</svg>
